<svg width="297" height="96" viewBox="0 0 297 96" fill="none" xmlns="http://www.w3.org/2000/svg">
<g clip-path="url(#clip0_41_74)">
<mask id="mask0_41_74" style="mask-type:luminance" maskUnits="userSpaceOnUse" x="-1" y="0" width="94" height="93">
<path d="M-0.03125 92.9165L-0.0312541 0.0831678L92.8646 0.0831637L92.8646 92.9165L-0.03125 92.9165Z" fill="white"/>
</mask>
<g mask="url(#mask0_41_74)">
<path d="M-0.031251 69.755C-0.0312516 56.9269 10.3698 46.5311 23.1927 46.5311L46.4167 46.5311L46.4167 23.3071C46.4167 10.479 56.8177 0.0831653 69.6406 0.0831648C82.4687 0.0831642 92.8646 10.479 92.8646 23.3071L92.8646 92.979L23.1927 92.979C10.3698 92.979 -0.0312505 82.578 -0.031251 69.755Z" fill="#3DBDEC"/>
</g>
<mask id="mask1_41_74" style="mask-type:luminance" maskUnits="userSpaceOnUse" x="45" y="46" width="48" height="47">
<path d="M45.25 92.9165L45.25 46.2498L92.8646 46.2498L92.8646 92.9165L45.25 92.9165Z" fill="white"/>
</mask>
<g mask="url(#mask1_41_74)">
<path d="M46.4166 46.5311L46.4166 92.979L92.8645 92.979L92.8645 46.5311L46.4166 46.5311Z" fill="#1F2B5B"/>
</g>
<mask id="mask2_41_74" style="mask-type:luminance" maskUnits="userSpaceOnUse" x="-1" y="0" width="94" height="93">
<path d="M-0.03125 92.9165L-0.0312541 0.0831678L92.8646 0.0831637L92.8646 92.9165L-0.03125 92.9165Z" fill="white"/>
</mask>
<g mask="url(#mask2_41_74)">
<path d="M23.1927 92.979L46.4167 92.979L46.4167 46.5311L23.1927 46.5311C10.3698 46.5311 -0.0312516 56.9269 -0.031251 69.755C-0.0312505 82.578 10.3698 92.979 23.1927 92.979ZM69.6406 0.0831648C82.4687 0.0831642 92.8646 10.479 92.8646 23.3071L92.8646 46.5311L46.4167 46.5311L46.4167 23.3071C46.4167 10.479 56.8177 0.0831653 69.6406 0.0831648ZM64.9427 83.5832L64.9427 74.453L55.8125 74.453L55.8125 65.0571L64.9427 65.0571L64.9427 55.9269L74.3385 55.9269L74.3385 65.0571L83.4688 65.0571L83.4688 74.453L74.3385 74.453L74.3385 83.5832L64.9427 83.5832Z" fill="#3DBDEC"/>
</g>
<mask id="mask3_41_74" style="mask-type:luminance" maskUnits="userSpaceOnUse" x="-1" y="0" width="94" height="93">
<path d="M-0.03125 92.9165L-0.0312541 0.0831678L92.8646 0.0831637L92.8646 92.9165L-0.03125 92.9165Z" fill="white"/>
</mask>
<g mask="url(#mask3_41_74)">
<path d="M23.1927 92.979L46.4167 92.979L46.4167 46.5311L23.1927 46.5311C10.3698 46.5311 -0.0312516 56.9269 -0.031251 69.755C-0.0312505 82.578 10.3698 92.979 23.1927 92.979ZM69.6406 0.083165C82.4687 0.0831644 92.8646 10.479 92.8646 23.3071L92.8646 46.5311L46.4167 46.5311L46.4167 23.3071C46.4167 10.479 56.8177 0.0831655 69.6406 0.083165ZM64.9427 83.5832L64.9427 74.453L55.8125 74.453L55.8125 65.0571L64.9427 65.0571L64.9427 55.9269L74.3385 55.9269L74.3385 65.0571L83.4687 65.0571L83.4687 74.453L74.3385 74.453L74.3385 83.5832L64.9427 83.5832Z" fill="#3DBDEC"/>
</g>
<mask id="mask4_41_74" style="mask-type:luminance" maskUnits="userSpaceOnUse" x="152" y="44" width="144" height="51">
<path d="M152 44H295.5V94.6667H152V44Z" fill="white"/>
</mask>
<g mask="url(#mask4_41_74)">
<path d="M187.375 62.3645L185.755 63.427C184.766 61.9739 183.479 60.828 181.885 59.9947C180.312 59.1405 178.599 58.7135 176.75 58.7135C173.75 58.7135 171.187 59.7655 169.062 61.8749C166.943 63.9843 165.88 66.5312 165.88 69.5103C165.88 72.4895 166.943 75.0364 169.062 77.1458C171.187 79.2499 173.75 80.3072 176.75 80.3072C178.599 80.3072 180.312 79.8801 181.885 79.026C183.479 78.1718 184.766 77.0155 185.755 75.5624L187.349 76.7083C186.177 78.4166 184.656 79.7708 182.792 80.7708C180.922 81.7708 178.911 82.2708 176.75 82.2708C175.01 82.2708 173.349 81.9322 171.755 81.2603C170.182 80.5885 168.818 79.677 167.661 78.5364C166.51 77.3905 165.594 76.0364 164.917 74.4739C164.24 72.8905 163.901 71.2343 163.901 69.5103C163.901 67.7812 164.24 66.1353 164.917 64.5728C165.594 62.9947 166.51 61.6301 167.661 60.4843C168.818 59.3385 170.182 58.4322 171.755 57.7603C173.349 57.0885 175.01 56.7499 176.75 56.7499C178.927 56.7499 180.953 57.2603 182.818 58.276C184.687 59.276 186.203 60.6405 187.375 62.3645ZM190.641 60.1301L188.995 61.1926C187.641 59.2291 185.885 57.677 183.724 56.5312C181.583 55.3697 179.26 54.7864 176.75 54.7864C174.062 54.7864 171.578 55.4478 169.312 56.776C167.042 58.0833 165.24 59.8645 163.901 62.1197C162.583 64.3749 161.927 66.8385 161.927 69.5103C161.927 72.1822 162.583 74.6458 163.901 76.8958C165.24 79.151 167.042 80.9426 169.312 82.2708C171.578 83.578 174.062 84.2343 176.75 84.2343C179.26 84.2343 181.594 83.651 183.75 82.4895C185.911 81.3228 187.667 79.7499 189.021 77.7708L190.641 78.8905C189.104 81.1405 187.109 82.9218 184.656 84.2343C182.224 85.5416 179.589 86.1978 176.75 86.1978C173.714 86.1978 170.901 85.4478 168.323 83.9583C165.74 82.4687 163.703 80.4426 162.198 77.8801C160.698 75.3176 159.948 72.526 159.948 69.5103C159.948 66.4947 160.698 63.703 162.198 61.1405C163.703 58.578 165.74 56.552 168.323 55.0572C170.901 53.5676 173.714 52.8228 176.75 52.8228C179.589 52.8228 182.224 53.4791 184.656 54.7864C187.109 56.0937 189.104 57.8749 190.641 60.1301ZM193.937 57.9478L192.292 59.0103C190.568 56.5051 188.339 54.5208 185.594 53.0676C182.865 51.5989 179.917 50.8593 176.75 50.8593C174.208 50.8593 171.771 51.3489 169.448 52.3333C167.125 53.3124 165.12 54.6405 163.437 56.3124C161.771 57.9687 160.443 59.9478 159.453 62.2551C158.464 64.5676 157.974 66.9843 157.974 69.5103C157.974 72.0364 158.464 74.453 159.453 76.7603C160.443 79.0676 161.771 81.0624 163.437 82.7343C165.12 84.3853 167.125 85.703 169.448 86.6874C171.771 87.6666 174.208 88.1562 176.75 88.1562C179.937 88.1562 182.891 87.4218 185.62 85.9478C188.344 84.4791 190.568 82.4895 192.292 79.9791L193.88 81.151C191.979 83.9166 189.516 86.1041 186.495 87.7239C183.495 89.3228 180.245 90.1197 176.75 90.1197C173 90.1197 169.531 89.203 166.344 87.3697C163.161 85.5155 160.635 83.0051 158.766 79.8437C156.922 76.6822 155.995 73.2343 155.995 69.5103C155.995 65.7812 156.922 62.3385 158.766 59.177C160.635 56.0155 163.161 53.5155 166.344 51.677C169.531 49.8228 173 48.8958 176.75 48.8958C180.266 48.8958 183.531 49.7135 186.552 51.3489C189.573 52.9687 192.036 55.1666 193.937 57.9478ZM197.177 55.7135L195.531 56.776C193.443 53.7395 190.745 51.3437 187.432 49.578C184.135 47.8176 180.578 46.9322 176.75 46.9322C173.677 46.9322 170.729 47.5364 167.911 48.7343C165.109 49.9166 162.693 51.5155 160.661 53.5312C158.63 55.552 157.01 57.9583 155.802 60.7551C154.615 63.5364 154.021 66.4583 154.021 69.5103C154.021 72.5624 154.615 75.4895 155.802 78.2864C157.01 81.0676 158.63 83.4687 160.661 85.4843C162.693 87.5051 165.109 89.1145 167.911 90.3124C170.729 91.4947 173.677 92.0833 176.75 92.0833C180.578 92.0833 184.146 91.1926 187.458 89.4114C190.771 87.6301 193.469 85.2239 195.557 82.1874L197.151 83.3853C194.88 86.6562 191.953 89.2603 188.365 91.1822C184.776 93.0937 180.906 94.0468 176.75 94.0468C173.401 94.0468 170.198 93.3905 167.141 92.0833C164.104 90.7916 161.479 89.0572 159.26 86.8749C157.068 84.677 155.307 82.0676 153.99 79.052C152.693 76.0155 152.042 72.8333 152.042 69.5103C152.042 66.1822 152.693 63.0103 153.99 59.9947C155.307 56.9583 157.068 54.3489 159.26 52.1718C161.479 49.9687 164.104 48.2239 167.141 46.9322C170.198 45.6249 173.401 44.9739 176.75 44.9739C180.922 44.9739 184.802 45.9374 188.391 47.8593C191.979 49.7864 194.906 52.4062 197.177 55.7135ZM215.927 69.6197H227.844C229.656 69.6197 231.182 69.0364 232.427 67.8749C233.693 66.7083 234.323 65.0572 234.323 62.9114C234.323 61.328 233.667 59.9114 232.349 58.6562C231.031 57.3853 229.526 56.7499 227.844 56.7499H210.875V92.0833H208.901V54.7864H227.844C230.078 54.7864 232.047 55.6145 233.745 57.2655C235.448 58.9062 236.302 60.7864 236.302 62.9114C236.302 65.5312 235.474 67.6301 233.828 69.2083C232.182 70.7916 230.187 71.5833 227.844 71.5833H215.927V69.6197ZM215.927 73.5468H227.844C230.698 73.5468 233.151 72.552 235.203 70.5728C237.25 68.5728 238.276 66.0208 238.276 62.9114C238.276 60.2395 237.224 57.8958 235.12 55.8749C233.031 53.8437 230.609 52.8228 227.844 52.8228H206.922V92.0833H204.948V50.8593H227.844C230.021 50.8593 232.062 51.4166 233.969 52.526C235.891 53.6301 237.417 55.1249 238.552 56.9947C239.687 58.8489 240.255 60.8228 240.255 62.9114C240.255 66.4947 239.026 69.4895 236.573 71.9062C234.141 74.3072 231.229 75.5051 227.844 75.5051H215.927V73.5468ZM215.927 77.4687H227.844C230.406 77.4687 232.786 76.8437 234.984 75.5885C237.177 74.3333 238.937 72.5885 240.255 70.3541C241.573 68.0989 242.229 65.6197 242.229 62.9114C242.229 60.4583 241.573 58.1562 240.255 56.0155C238.953 53.8489 237.198 52.1249 234.984 50.8333C232.766 49.5416 230.391 48.8958 227.844 48.8958H202.969V92.0833H200.995V46.9322H227.844C230.719 46.9322 233.417 47.6718 235.943 49.1405C238.469 50.5989 240.474 52.5624 241.958 55.0312C243.458 57.4843 244.208 60.1145 244.208 62.9114C244.208 66.1458 243.5 68.9895 242.094 71.4478C240.703 73.901 238.807 75.8176 236.411 77.1978L241.516 92.0833H239.432L234.542 78.1249C233.812 78.4166 233.255 78.6145 232.87 78.7239L237.453 92.0833H235.365L230.891 79.1874C230.729 79.2239 230.141 79.2864 229.135 79.3801L233.391 92.0833H231.302L227.104 79.4322H225.318L229.328 92.0833H227.24L223.203 79.4322H215.927V77.4687ZM214.828 92.0833H212.854V58.7135H227.844C229.068 58.7135 230.125 59.1301 231 59.9687C231.896 60.7864 232.349 61.7655 232.349 62.9114C232.349 66.0728 230.844 67.6562 227.844 67.6562H215.927V65.6926H227.844C228.63 65.6926 229.245 65.4947 229.682 65.0937C230.141 64.677 230.37 63.9478 230.37 62.9114C230.37 62.276 230.125 61.7499 229.63 61.328C229.151 60.8958 228.557 60.677 227.844 60.677H214.828V92.0833ZM281.161 75.6145L283.135 71.9062V92.0833H281.161V75.6145ZM285.115 68.0937L287.094 64.3853V92.0833H285.115V68.0937ZM289.068 60.677L291.047 56.9426V92.0833H289.068V60.677ZM275.807 74.6874L274.682 72.6458L288.297 46.9322H290.521L275.807 74.6874ZM273.531 70.4114L272.375 68.3385L283.797 46.9322H286.047L273.531 70.4114ZM260.297 72.1249L262.271 75.8333V92.0833H260.297V72.1249ZM256.344 64.6562L258.318 68.3645V92.0833H256.344V64.6562ZM252.391 57.1874L254.365 60.9218V92.0833H252.391V57.1874ZM268.37 80.3072H266.146L250.411 50.6718V92.0833H248.437V46.9322H250.661L268.37 80.3072ZM272.844 80.3072H270.589L252.911 46.9322H255.161L272.844 80.3072ZM293.021 50.6718L277.292 80.3072H275.036L257.385 46.9322H259.609L276.193 78.2343L292.745 46.9322H295V92.0833H293.021V50.6718Z" fill="#009CDF"/>
</g>
<mask id="mask5_41_74" style="mask-type:luminance" maskUnits="userSpaceOnUse" x="109" y="46" width="39" height="48">
<path d="M109.818 46.6665H148V93.3332H109.818V46.6665Z" fill="white"/>
</mask>
<g mask="url(#mask5_41_74)">
<path d="M125.656 82.0885L125.599 82.1666H125.661V82.1926H131.219V82.1666H147.089V92.0833H109.818V85.2655L125.432 64.5728L125.656 82.0885ZM147.177 53.5728L131.219 74.7239V56.9062L131.396 56.6718H109.911V46.7551H147.177V53.5728Z" fill="#1F2B5B"/>
</g>
</g>
<defs>
<clipPath id="clip0_41_74">
<rect width="297" height="96" fill="white"/>
</clipPath>
</defs>
</svg>
