<svg width="96" height="96" viewBox="0 0 96 96" fill="none" xmlns="http://www.w3.org/2000/svg">
<g clip-path="url(#clip0_40_54)">
<mask id="mask0_40_54" style="mask-type:luminance" maskUnits="userSpaceOnUse" x="1" y="0" width="96" height="96">
<path d="M1 0H97V96H1V0Z" fill="white"/>
</mask>
<g mask="url(#mask0_40_54)">
<path d="M91.8659 19.16L96.9999 0L77.8399 5.13404L82.1448 9.43886L11.962 79.6275C11.962 79.6275 12.403 80.1392 14.6201 82.3916C16.8314 84.6381 17.3783 85.0439 17.3783 85.0439L87.5611 14.8552L91.8659 19.16ZM42.7603 34.1916L47.0651 38.5023L52.1992 19.3423L33.0392 24.4764L37.344 28.7812L9.32732 56.8037C8.9921 55.0159 8.78039 53.2105 8.70394 51.3933C8.62161 49.5761 8.66865 47.7589 8.84508 45.9476C9.02151 44.1362 9.32144 42.3484 9.75074 40.5783C10.18 38.814 10.727 37.0791 11.4033 35.3913C12.0737 33.6976 12.8617 32.0627 13.7615 30.4866C14.6672 28.9047 15.6787 27.3992 16.7902 25.9583C17.9076 24.5234 19.119 23.1708 20.4246 21.9064C21.736 20.6361 23.1239 19.4717 24.5942 18.4014C26.0644 17.331 27.6052 16.3666 29.2107 15.5138C30.8221 14.6611 32.4805 13.926 34.1918 13.3085C35.9032 12.6851 37.6498 12.1911 39.4317 11.8206C41.2077 11.4443 43.0073 11.2031 44.8245 11.0796C46.6417 10.962 48.453 10.9738 50.2702 11.109C52.0874 11.2502 53.8811 11.5148 55.6571 11.903C57.4332 12.297 59.1739 12.8086 60.8794 13.4438C62.5849 14.0789 64.2374 14.8375 65.837 15.702L71.4356 10.1034C69.295 8.80372 67.0602 7.68047 64.7373 6.73952C62.4084 5.79858 60.0267 5.0517 57.5802 4.4989C55.1337 3.94609 52.6638 3.59324 50.1585 3.44033C47.6532 3.28743 45.1538 3.34036 42.6603 3.59324C40.1668 3.84612 37.7086 4.29895 35.2915 4.95173C32.8686 5.60451 30.5162 6.45136 28.2286 7.4864C25.9468 8.52144 23.7591 9.73291 21.6713 11.1208C19.5895 12.5087 17.6253 14.0554 15.7904 15.7608C13.9497 17.4722 12.2678 19.3129 10.727 21.2948C9.19205 23.2766 7.8218 25.3703 6.62798 27.5697C5.42827 29.7751 4.41675 32.0627 3.58755 34.4269C2.76422 36.7969 2.13496 39.2139 1.69977 41.6839C1.26459 44.1539 1.02935 46.6415 0.999945 49.1468C0.970541 51.652 1.14109 54.1456 1.51747 56.6273C1.88796 59.1032 2.46429 61.5379 3.22881 63.9255C3.99921 66.3132 4.9578 68.6185 6.0987 70.8532L42.7603 34.1916ZM81.2862 31.1806C89.2665 45.8476 87.0612 64.6312 74.6701 77.0223C72.4471 79.2453 69.9889 81.1683 67.2955 82.7915C64.602 84.4146 61.7556 85.6908 58.7505 86.6199C55.7512 87.5432 52.6814 88.1019 49.541 88.2784C46.4006 88.4607 43.2896 88.2548 40.1962 87.6785L50.3232 77.5516L54.6339 81.8623L59.7679 62.6964L40.602 67.8304L44.9127 72.1411L31.91 85.1497L26.1526 90.9012C28.3815 92.048 30.6927 93.0007 33.0803 93.7711C35.468 94.5415 37.8968 95.112 40.3785 95.4884C42.8544 95.8589 45.3479 96.0353 47.8591 96C50.3643 95.9706 52.8519 95.7412 55.3219 95.306C57.7919 94.8709 60.209 94.2416 62.579 93.4124C64.9431 92.5891 67.2308 91.5776 69.4302 90.3778C71.6356 89.1781 73.7292 87.8138 75.7052 86.2789C77.687 84.7381 79.5336 83.0502 81.2391 81.2154C82.9446 79.3805 84.4971 77.4163 85.885 75.3286C87.2729 73.2468 88.4844 71.0591 89.5194 68.7714C90.5545 66.4896 91.3954 64.1372 92.0482 61.7143C92.701 59.2972 93.1538 56.839 93.4067 54.3455C93.6655 51.852 93.7125 49.3526 93.5596 46.8473C93.4126 44.348 93.0597 41.8721 92.5069 39.4256C91.9541 36.9792 91.2072 34.5974 90.2663 32.2686C89.3254 29.9456 88.2021 27.7109 86.9024 25.5702L81.2862 31.1806Z" fill="black"/>
</g>
</g>
<defs>
<clipPath id="clip0_40_54">
<rect width="96" height="96" fill="white"/>
</clipPath>
</defs>
</svg>
