<svg width="304" height="87" viewBox="0 0 304 87" fill="none" xmlns="http://www.w3.org/2000/svg">
<mask id="mask0_40_36" style="mask-type:luminance" maskUnits="userSpaceOnUse" x="1" y="0" width="86" height="86">
<path d="M1.72913 0H86.75V85.0208H1.72913V0Z" fill="white"/>
</mask>
<g mask="url(#mask0_40_36)">
<path d="M82.203 16.9687L86.7499 0L69.7812 4.54687L73.5937 8.35937L11.4374 70.5208C11.4374 70.5208 11.828 70.974 13.7916 72.9688C15.7499 74.9583 16.2343 75.3177 16.2343 75.3177L78.3905 13.1563L82.203 16.9687ZM38.7134 30.2813L42.5259 34.099L47.0728 17.1302L30.1041 21.6771L33.9166 25.4896L9.10407 50.3073C8.80719 48.724 8.61969 47.125 8.55198 45.5156C8.47907 43.9063 8.52073 42.2969 8.67698 40.6927C8.83323 39.0885 9.09886 37.5052 9.47907 35.9375C9.85927 34.375 10.3436 32.8385 10.9426 31.3438C11.5364 29.8438 12.2343 28.3958 13.0312 27C13.8332 25.599 14.7291 24.2656 15.7134 22.9896C16.703 21.7187 17.7759 20.5208 18.9322 19.401C20.0936 18.276 21.3228 17.2448 22.6249 16.2969C23.927 15.349 25.2916 14.4948 26.7134 13.7396C28.1405 12.9844 29.6093 12.3333 31.1249 11.7865C32.6405 11.2344 34.1874 10.7969 35.7655 10.4687C37.3384 10.1354 38.9322 9.92187 40.5416 9.8125C42.1509 9.70833 43.7551 9.71875 45.3645 9.83854C46.9739 9.96354 48.5624 10.1979 50.1353 10.5417C51.7082 10.8906 53.2499 11.3438 54.7603 11.9063C56.2707 12.4688 57.7343 13.1406 59.1509 13.9063L64.1093 8.94792C62.2134 7.79687 60.2343 6.80208 58.177 5.96875C56.1145 5.13542 54.0051 4.47396 51.8384 3.98437C49.6718 3.49479 47.4843 3.18229 45.2655 3.04687C43.0468 2.91146 40.8332 2.95833 38.6249 3.18229C36.4166 3.40625 34.2395 3.80729 32.0989 4.38542C29.953 4.96354 27.8697 5.71354 25.8437 6.63021C23.8228 7.54687 21.8853 8.61979 20.0364 9.84896C18.1926 11.0781 16.453 12.4479 14.828 13.9583C13.1978 15.474 11.7082 17.1042 10.3436 18.8594C8.98427 20.6146 7.77073 22.4688 6.71344 24.4167C5.65094 26.3698 4.75511 28.3958 4.02073 30.4896C3.29157 32.5885 2.73427 34.7292 2.34886 36.9167C1.96344 39.1042 1.75511 41.3073 1.72907 43.526C1.70303 45.7448 1.85407 47.9531 2.1874 50.151C2.51553 52.3438 3.02594 54.5 3.70303 56.6146C4.38532 58.7292 5.23427 60.7708 6.24469 62.75L38.7134 30.2813ZM72.8332 27.6146C79.9009 40.6042 77.9478 57.2396 66.9739 68.2135C65.0051 70.1823 62.828 71.8854 60.4426 73.3229C58.0572 74.7604 55.5364 75.8906 52.8749 76.7135C50.2186 77.5313 47.4999 78.026 44.7186 78.1823C41.9374 78.3438 39.1822 78.1615 36.4426 77.651L45.4114 68.6823L49.2291 72.5L53.7759 55.526L36.802 60.0729L40.6197 63.8906L29.1041 75.4115L24.0051 80.5052C25.9791 81.5208 28.0259 82.3646 30.1405 83.0469C32.2551 83.7292 34.4062 84.2344 36.6041 84.5677C38.7968 84.8958 41.0051 85.0521 43.2291 85.0208C45.4478 84.9948 47.6509 84.7917 49.8384 84.4063C52.0259 84.0208 54.1666 83.4635 56.2655 82.7292C58.3593 82 60.3853 81.1042 62.3332 80.0417C64.2864 78.9792 66.1405 77.7708 67.8905 76.4115C69.6457 75.0469 71.2812 73.5521 72.7916 71.9271C74.302 70.3021 75.677 68.5625 76.9062 66.7135C78.1353 64.8698 79.2082 62.9323 80.1249 60.9063C81.0416 58.8854 81.7864 56.8021 82.3645 54.6563C82.9426 52.5156 83.3437 50.3385 83.5676 48.1302C83.7968 45.9219 83.8384 43.7083 83.703 41.4896C83.5728 39.276 83.2603 37.0833 82.7707 34.9167C82.2812 32.75 81.6197 30.6406 80.7864 28.5781C79.953 26.5208 78.9582 24.5417 77.8072 22.6458L72.8332 27.6146Z" fill="black"/>
</g>
<path d="M187.052 35.0573L185.339 36.1927C184.292 34.6406 182.927 33.4219 181.24 32.5313C179.573 31.6198 177.766 31.1615 175.807 31.1615C172.63 31.1615 169.917 32.2865 167.672 34.5365C165.422 36.7813 164.297 39.4948 164.297 42.6719C164.297 45.849 165.422 48.5625 167.672 50.8073C169.917 53.0573 172.63 54.1771 175.807 54.1771C177.766 54.1771 179.573 53.724 181.24 52.8125C182.927 51.901 184.292 50.6719 185.339 49.1198L187.026 50.3438C185.781 52.1615 184.177 53.6094 182.198 54.6719C180.224 55.7396 178.094 56.2708 175.807 56.2708C173.964 56.2708 172.203 55.9115 170.516 55.1979C168.849 54.4792 167.406 53.5104 166.187 52.2917C164.969 51.0677 164 49.625 163.281 47.9583C162.562 46.276 162.208 44.5104 162.208 42.6719C162.208 40.8281 162.562 39.0781 163.281 37.4115C164 35.724 164.969 34.2708 166.187 33.0521C167.406 31.8333 168.849 30.8646 170.516 30.1458C172.203 29.4271 173.964 29.0729 175.807 29.0729C178.109 29.0729 180.255 29.6146 182.229 30.6979C184.203 31.7656 185.812 33.2187 187.052 35.0573ZM190.51 32.6719L188.766 33.8073C187.333 31.7135 185.474 30.0573 183.187 28.8385C180.922 27.599 178.458 26.9792 175.807 26.9792C172.958 26.9792 170.333 27.6875 167.932 29.099C165.531 30.4948 163.62 32.3906 162.208 34.7969C160.812 37.1979 160.115 39.8229 160.115 42.6719C160.115 45.5208 160.812 48.1458 162.208 50.5469C163.62 52.9479 165.531 54.8594 167.932 56.2708C170.333 57.6667 172.958 58.3646 175.807 58.3646C178.458 58.3646 180.932 57.7448 183.219 56.5052C185.505 55.2656 187.365 53.5885 188.797 51.474L190.51 52.6667C188.885 55.0677 186.771 56.9687 184.177 58.3646C181.599 59.7604 178.807 60.4583 175.807 60.4583C172.589 60.4583 169.615 59.6615 166.885 58.0729C164.151 56.4844 161.995 54.3229 160.406 51.5938C158.818 48.8594 158.021 45.8854 158.021 42.6719C158.021 39.4531 158.818 36.4792 160.406 33.75C161.995 31.0156 164.151 28.8594 166.885 27.2708C169.615 25.6823 172.589 24.8854 175.807 24.8854C178.807 24.8854 181.599 25.5833 184.177 26.9792C186.771 28.375 188.885 30.2708 190.51 32.6719ZM194 30.349L192.255 31.4844C190.432 28.8073 188.068 26.6979 185.167 25.1458C182.276 23.5781 179.156 22.7917 175.807 22.7917C173.115 22.7917 170.536 23.3177 168.078 24.3646C165.615 25.4115 163.495 26.8229 161.714 28.6042C159.948 30.3698 158.547 32.4792 157.5 34.9427C156.453 37.401 155.927 39.9792 155.927 42.6719C155.927 45.3646 156.453 47.9427 157.5 50.401C158.547 52.8594 159.948 54.9844 161.714 56.7656C163.495 58.526 165.615 59.9323 168.078 60.9792C170.536 62.026 173.115 62.5469 175.807 62.5469C179.177 62.5469 182.307 61.7656 185.193 60.1927C188.078 58.625 190.432 56.5052 192.255 53.8281L193.943 55.0781C191.927 58.026 189.318 60.3594 186.125 62.0833C182.948 63.7865 179.505 64.6406 175.807 64.6406C171.833 64.6406 168.161 63.6615 164.792 61.7031C161.422 59.7292 158.75 57.0573 156.771 53.6823C154.818 50.3125 153.839 46.6406 153.839 42.6719C153.839 38.6979 154.818 35.026 156.771 31.6563C158.75 28.2865 161.422 25.6198 164.792 23.6667C168.161 21.6875 171.833 20.7031 175.807 20.7031C179.526 20.7031 182.984 21.5729 186.182 23.3177C189.375 25.0417 191.984 27.3854 194 30.349ZM197.427 27.9688L195.682 29.099C193.474 25.8646 190.62 23.3073 187.109 21.4271C183.625 19.5469 179.854 18.6094 175.807 18.6094C172.552 18.6094 169.432 19.25 166.448 20.526C163.484 21.7865 160.927 23.4896 158.776 25.6406C156.625 27.7917 154.911 30.3594 153.635 33.3438C152.375 36.3073 151.745 39.4167 151.745 42.6719C151.745 45.9271 152.375 49.0469 153.635 52.026C154.911 54.9948 156.625 57.5521 158.776 59.6979C160.927 61.849 163.484 63.5677 166.448 64.8438C169.432 66.1042 172.552 66.7344 175.807 66.7344C179.854 66.7344 183.635 65.7813 187.141 63.8854C190.646 61.9844 193.505 59.4219 195.714 56.1823L197.396 57.4635C194.995 60.9479 191.896 63.7188 188.099 65.776C184.302 67.8073 180.203 68.8229 175.807 68.8229C172.26 68.8229 168.87 68.1302 165.635 66.7344C162.422 65.3594 159.641 63.5052 157.297 61.1823C154.969 58.8385 153.109 56.0573 151.714 52.8438C150.339 49.6042 149.651 46.2188 149.651 42.6719C149.651 39.125 150.339 35.7448 151.714 32.5313C153.109 29.2917 154.969 26.5156 157.297 24.1875C159.641 21.8437 162.422 19.9844 165.635 18.6094C168.87 17.2135 172.26 16.5156 175.807 16.5156C180.224 16.5156 184.333 17.5417 188.13 19.599C191.927 21.651 195.026 24.4427 197.427 27.9688ZM217.276 42.7865H229.891C231.807 42.7865 233.422 42.1667 234.74 40.9271C236.078 39.6875 236.745 37.9219 236.745 35.6406C236.745 33.9531 236.047 32.4427 234.656 31.1042C233.26 29.75 231.672 29.0729 229.891 29.0729H211.927V66.7344H209.839V26.9792H229.891C232.25 26.9792 234.333 27.8594 236.135 29.625C237.937 31.3646 238.839 33.3698 238.839 35.6406C238.839 38.4271 237.969 40.6667 236.224 42.349C234.479 44.0365 232.37 44.8802 229.891 44.8802H217.276V42.7865ZM217.276 46.974H229.891C232.911 46.974 235.505 45.9167 237.677 43.8021C239.844 41.6719 240.932 38.9531 240.932 35.6406C240.932 32.7917 239.818 30.2917 237.589 28.1406C235.38 25.9687 232.812 24.8854 229.891 24.8854H207.745V66.7344H205.651V22.7917H229.891C232.193 22.7917 234.354 23.3854 236.37 24.5677C238.401 25.75 240.021 27.3385 241.224 29.3333C242.422 31.3073 243.026 33.4115 243.026 35.6406C243.026 39.4531 241.724 42.651 239.13 45.2292C236.552 47.7865 233.474 49.0625 229.891 49.0625H217.276V46.974ZM217.276 51.1563H229.891C232.599 51.1563 235.12 50.4896 237.443 49.151C239.771 47.8125 241.63 45.9531 243.026 43.5729C244.417 41.1719 245.115 38.526 245.115 35.6406C245.115 33.0208 244.417 30.5729 243.026 28.2865C241.646 25.9792 239.786 24.1406 237.443 22.7656C235.099 21.3906 232.583 20.7031 229.891 20.7031H203.557V66.7344H201.469V18.6094H229.891C232.932 18.6094 235.786 19.3958 238.458 20.9635C241.135 22.5104 243.255 24.6042 244.828 27.2396C246.411 29.8542 247.208 32.6563 247.208 35.6406C247.208 39.0885 246.464 42.1198 244.969 44.7344C243.5 47.349 241.495 49.3958 238.953 50.8646L244.359 66.7344H242.151L236.979 51.8542C236.203 52.1615 235.615 52.375 235.208 52.4948L240.057 66.7344H237.849L233.115 52.9896C232.937 53.026 232.318 53.0938 231.255 53.1927L235.76 66.7344H233.552L229.104 53.25H227.214L231.458 66.7344H229.25L224.979 53.25H217.276V51.1563ZM216.115 66.7344H214.021V31.1615H229.891C231.187 31.1615 232.302 31.6094 233.229 32.5C234.177 33.3698 234.656 34.4167 234.656 35.6406C234.656 39.0104 233.068 40.6927 229.891 40.6927H217.276V38.6042H229.891C230.719 38.6042 231.37 38.3906 231.833 37.9635C232.318 37.5156 232.562 36.7448 232.562 35.6406C232.562 34.9583 232.302 34.3958 231.776 33.9531C231.271 33.4896 230.646 33.2552 229.891 33.2552H216.115V66.7344ZM286.323 49.1823L288.417 45.2292V66.7344H286.323V49.1823ZM290.51 41.1615L292.599 37.2083V66.7344H290.51V41.1615ZM294.693 33.2552L296.786 29.276V66.7344H294.693V33.2552ZM280.656 48.1927L279.464 46.0104L293.88 18.6094H296.234L280.656 48.1927ZM278.245 43.6302L277.026 41.4219L289.115 18.6094H291.495L278.245 43.6302ZM264.24 45.4583L266.328 49.4115V66.7344H264.24V45.4583ZM260.052 37.5L262.146 41.4479V66.7344H260.052V37.5ZM255.87 29.5365L257.958 33.5156V66.7344H255.87V29.5365ZM272.781 54.1771H270.427L253.776 22.5885V66.7344H251.682V18.6094H254.036L272.781 54.1771ZM277.521 54.1771H275.135L256.422 18.6094H258.802L277.521 54.1771ZM298.88 22.5885L282.224 54.1771H279.844L261.156 18.6094H263.51L281.062 51.9688L298.589 18.6094H300.969V66.7344H298.88V22.5885Z" fill="#111111"/>
<mask id="mask1_40_36" style="mask-type:luminance" maskUnits="userSpaceOnUse" x="104" y="17" width="42" height="51">
<path d="M104.958 17.3333H145.333V67.9999H104.958V17.3333Z" fill="white"/>
</mask>
<g mask="url(#mask1_40_36)">
<path d="M121.724 56.0832L121.667 56.1613H121.724L121.729 56.1925H127.609V56.1613H144.406V66.7342H104.958V59.4686L121.49 37.4061L121.724 56.0832ZM144.5 25.6821L127.609 48.229V29.2342L127.797 28.9842H105.057V18.4165H144.5V25.6821Z" fill="black"/>
</g>
</svg>
