<svg width="300" height="87" viewBox="0 0 300 87" fill="none" xmlns="http://www.w3.org/2000/svg">
<mask id="mask0_42_168" style="mask-type:luminance" maskUnits="userSpaceOnUse" x="144" y="30" width="154" height="54">
<path d="M144.08 30.6667H297.169V84.0001H144.08V30.6667Z" fill="white"/>
</mask>
<g mask="url(#mask0_42_168)">
<path d="M182.721 50.0731L181.002 51.2085C179.96 49.6564 178.59 48.4377 176.908 47.547C175.241 46.6356 173.429 46.1825 171.471 46.1825C168.294 46.1825 165.58 47.3075 163.335 49.5522C161.085 51.8022 159.965 54.5106 159.965 57.6877C159.965 60.8647 161.085 63.5783 163.335 65.8283C165.58 68.0731 168.294 69.1981 171.471 69.1981C173.429 69.1981 175.241 68.7397 176.908 67.8335C178.59 66.922 179.96 65.6929 181.002 64.1408L182.689 65.3595C181.45 67.1825 179.84 68.6252 177.866 69.6929C175.887 70.7554 173.757 71.2918 171.471 71.2918C169.632 71.2918 167.866 70.9325 166.184 70.2137C164.517 69.495 163.075 68.5314 161.851 67.3075C160.632 66.0887 159.663 64.646 158.945 62.9793C158.231 61.2918 157.872 59.5314 157.872 57.6877C157.872 55.8491 158.231 54.0939 158.945 52.4272C159.663 50.745 160.632 49.2918 161.851 48.0679C163.075 46.8491 164.517 45.8804 166.184 45.1616C167.866 44.4481 169.632 44.0887 171.471 44.0887C173.778 44.0887 175.919 44.6304 177.892 45.7137C179.872 46.7814 181.476 48.2345 182.721 50.0731ZM186.174 47.6929L184.434 48.8283C182.997 46.7345 181.137 45.0783 178.851 43.8543C176.585 42.6147 174.127 41.995 171.471 41.995C168.622 41.995 165.997 42.7033 163.596 44.12C161.195 45.5106 159.288 47.4116 157.872 49.8127C156.476 52.2137 155.778 54.8387 155.778 57.6877C155.778 60.5366 156.476 63.1616 157.872 65.5627C159.288 67.9689 161.195 69.8752 163.596 71.2918C165.997 72.6825 168.622 73.3804 171.471 73.3804C174.127 73.3804 176.596 72.7606 178.882 71.521C181.169 70.2814 183.028 68.6043 184.46 66.495L186.174 67.6877C184.549 70.0887 182.439 71.9845 179.84 73.3804C177.262 74.7762 174.476 75.4741 171.471 75.4741C168.257 75.4741 165.283 74.6825 162.549 73.0887C159.82 71.5002 157.658 69.3439 156.07 66.6095C154.481 63.8804 153.689 60.9064 153.689 57.6877C153.689 54.4741 154.481 51.5002 156.07 48.7658C157.658 46.0366 159.82 43.8752 162.549 42.2866C165.283 40.6981 168.257 39.9064 171.471 39.9064C174.476 39.9064 177.262 40.5991 179.84 41.995C182.439 43.3908 184.549 45.2918 186.174 47.6929ZM189.663 45.37L187.919 46.5002C186.101 43.8283 183.736 41.7137 180.83 40.1668C177.945 38.5939 174.825 37.8127 171.471 37.8127C168.778 37.8127 166.2 38.3335 163.741 39.3804C161.283 40.4272 159.158 41.8439 157.377 43.6252C155.616 45.3856 154.21 47.5002 153.163 49.9585C152.116 52.422 151.596 54.995 151.596 57.6877C151.596 60.3804 152.116 62.9585 153.163 65.4168C154.21 67.8804 155.616 70.0002 157.377 71.7814C159.158 73.547 161.283 74.9533 163.741 75.995C166.2 77.0418 168.778 77.5679 171.471 77.5679C174.84 77.5679 177.971 76.7814 180.861 75.2137C183.747 73.646 186.101 71.521 187.919 68.8491L189.606 70.0991C187.59 73.0418 184.986 75.3752 181.788 77.0991C178.611 78.8075 175.174 79.6564 171.471 79.6564C167.502 79.6564 163.83 78.6825 160.46 76.7241C157.085 74.7502 154.413 72.0731 152.439 68.7033C150.481 65.3335 149.502 61.6616 149.502 57.6877C149.502 53.7189 150.481 50.047 152.439 46.6772C154.413 43.3022 157.085 40.6408 160.46 38.6825C163.83 36.7085 167.502 35.7189 171.471 35.7189C175.189 35.7189 178.648 36.5887 181.846 38.3335C185.044 40.0575 187.648 42.4012 189.663 45.37ZM193.09 42.9845L191.351 44.12C189.142 40.8804 186.283 38.3231 182.778 36.4481C179.288 34.5679 175.523 33.6252 171.471 33.6252C168.215 33.6252 165.096 34.2658 162.116 35.547C159.148 36.8022 156.59 38.5106 154.445 40.6616C152.294 42.8127 150.575 45.3752 149.299 48.3595C148.038 51.3231 147.408 54.4325 147.408 57.6877C147.408 60.9429 148.038 64.0627 149.299 67.047C150.575 70.0106 152.294 72.5679 154.445 74.7189C156.59 76.87 159.148 78.5835 162.116 79.8647C165.096 81.12 168.215 81.7502 171.471 81.7502C175.523 81.7502 179.299 80.8022 182.804 78.9012C186.314 77.0054 189.169 74.4377 191.377 71.2033L193.064 72.4793C190.663 75.9689 187.564 78.7397 183.762 80.7918C179.965 82.8283 175.872 83.8439 171.471 83.8439C167.929 83.8439 164.538 83.146 161.299 81.7502C158.085 80.3752 155.304 78.5262 152.96 76.2033C150.637 73.8543 148.778 71.0783 147.382 67.8595C146.007 64.6252 145.32 61.2345 145.32 57.6877C145.32 54.146 146.007 50.7606 147.382 47.547C148.778 44.3127 150.637 41.5314 152.96 39.2085C155.304 36.8647 158.085 35.0002 161.299 33.6252C164.538 32.2345 167.929 31.5366 171.471 31.5366C175.887 31.5366 179.997 32.5627 183.794 34.6147C187.59 36.6668 190.689 39.4585 193.09 42.9845ZM212.939 57.8075H225.554C227.471 57.8075 229.09 57.1877 230.408 55.9481C231.741 54.7033 232.413 52.9429 232.413 50.6564C232.413 48.9689 231.715 47.4585 230.32 46.1252C228.924 44.7658 227.335 44.0887 225.554 44.0887H207.596V81.7502H205.502V41.995H225.554C227.919 41.995 230.002 42.8804 231.804 44.6408C233.601 46.3856 234.502 48.3908 234.502 50.6564C234.502 53.4481 233.632 55.6825 231.887 57.37C230.142 59.0575 228.033 59.896 225.554 59.896H212.939V57.8075ZM212.939 61.9897H225.554C228.575 61.9897 231.174 60.9325 233.34 58.8231C235.512 56.6929 236.596 53.9689 236.596 50.6564C236.596 47.8075 235.481 45.3075 233.252 43.1564C231.044 40.9897 228.481 39.9064 225.554 39.9064H203.408V81.7502H201.314V37.8127H225.554C227.861 37.8127 230.017 38.4012 232.033 39.5835C234.07 40.7658 235.684 42.3543 236.887 44.3491C238.09 46.3283 238.689 48.4272 238.689 50.6564C238.689 54.4741 237.392 57.672 234.794 60.245C232.221 62.8022 229.137 64.0835 225.554 64.0835H212.939V61.9897ZM212.939 66.1772H225.554C228.267 66.1772 230.783 65.5054 233.111 64.172C235.434 62.8335 237.294 60.9741 238.689 58.5887C240.085 56.1877 240.783 53.5418 240.783 50.6564C240.783 48.0418 240.085 45.5887 238.689 43.3022C237.314 41.0002 235.455 39.1564 233.111 37.7814C230.762 36.4064 228.247 35.7189 225.554 35.7189H199.226V81.7502H197.132V33.6252H225.554C228.596 33.6252 231.455 34.4116 234.127 35.9793C236.799 37.5314 238.924 39.6252 240.491 42.2606C242.08 44.8752 242.872 47.672 242.872 50.6564C242.872 54.1043 242.127 57.1356 240.637 59.7502C239.163 62.37 237.158 64.4116 234.622 65.8856L240.028 81.7502H237.814L232.642 66.87C231.872 67.1825 231.278 67.396 230.872 67.5106L235.726 81.7502H233.517L228.778 68.0054C228.606 68.047 227.986 68.1147 226.919 68.2085L231.424 81.7502H229.215L224.767 68.2658H222.882L227.122 81.7502H224.913L220.642 68.2658H212.939V66.1772ZM211.778 81.7502H209.684V46.1825H225.554C226.851 46.1825 227.965 46.6252 228.898 47.5158C229.846 48.3908 230.32 49.4377 230.32 50.6564C230.32 54.0262 228.731 55.7137 225.554 55.7137H212.939V53.62H225.554C226.387 53.62 227.033 53.4064 227.502 52.9793C227.986 52.5366 228.226 51.7606 228.226 50.6564C228.226 49.9793 227.965 49.4168 227.445 48.9689C226.939 48.5054 226.309 48.2762 225.554 48.2762H211.778V81.7502ZM281.986 64.1981L284.08 60.245V81.7502H281.986V64.1981ZM286.174 56.1772L288.268 52.2241V81.7502H286.174V56.1772ZM290.356 48.2762L292.45 44.2918V81.7502H290.356V48.2762ZM276.32 63.2085L275.132 61.0314L289.544 33.6252H291.898L276.32 63.2085ZM273.908 58.646L272.689 56.4377L284.778 33.6252H287.163L273.908 58.646ZM259.903 60.4793L261.997 64.4325V81.7502H259.903V60.4793ZM255.715 52.5158L257.809 56.4689V81.7502H255.715V52.5158ZM251.533 44.5522L253.627 48.5366V81.7502H251.533V44.5522ZM268.445 69.1981H266.096L249.439 37.6095V81.7502H247.351V33.6252H249.705L268.445 69.1981ZM273.184 69.1981H270.799L252.085 33.6252H254.471L273.184 69.1981ZM294.544 37.6095L277.893 69.1981H275.507L256.825 33.6252H259.174L276.731 66.9897L294.252 33.6252H296.637V81.7502H294.544V37.6095Z" fill="#111111"/>
</g>
<mask id="mask1_42_168" style="mask-type:luminance" maskUnits="userSpaceOnUse" x="100" y="33" width="42" height="50">
<path d="M100.627 33.3333H141.413V82.6666H100.627V33.3333Z" fill="white"/>
</mask>
<g mask="url(#mask1_42_168)">
<path d="M117.392 71.0988L117.33 71.1821H117.392V71.2082H123.273V71.1821H140.075V81.7498H100.627V74.4842L117.153 52.4269L117.392 71.0988ZM140.168 40.6978L123.273 63.2446V44.255L123.465 44.005H100.721V33.4321H140.168V40.6978Z" fill="black"/>
</g>
<mask id="mask2_42_168" style="mask-type:luminance" maskUnits="userSpaceOnUse" x="1" y="0" width="83" height="86">
<path d="M1.70496 0H84V85.0208H1.70496V0Z" fill="white"/>
</mask>
<g mask="url(#mask2_42_168)">
<path fill-rule="evenodd" clip-rule="evenodd" d="M14.0061 47.9688L29.807 32.3334V10.3803L37.6108 18.099L55.898 0.010498V41.8803L71.6988 57.5157V81.2293H84V84.7188C78.7296 84.7188 73.4644 84.7188 68.1991 84.7188V58.9688L55.898 46.8022V84.7188H52.3931V8.39071L40.0919 20.5574L46.8823 27.2709V84.7188H43.3774V28.724L33.3067 18.7657V84.7188H29.807V37.2501L17.5058 49.422V84.7188C12.2406 84.7188 6.97017 84.7188 1.70496 84.7188V81.2293H14.0061V47.9688Z" fill="#111111"/>
</g>
<mask id="mask3_42_168" style="mask-type:luminance" maskUnits="userSpaceOnUse" x="29" y="10" width="19" height="76">
<path d="M29.8612 10.0417H47.1685V85.0782H29.8612V10.0417Z" fill="white"/>
</mask>
<g mask="url(#mask3_42_168)">
<mask id="mask4_42_168" style="mask-type:luminance" maskUnits="userSpaceOnUse" x="29" y="10" width="19" height="76">
<path d="M47.1685 27.3647V85.0522L29.8612 67.7345V10.0417L47.1685 27.3647Z" fill="white"/>
</mask>
<g mask="url(#mask4_42_168)">
<path d="M47.1685 10.0417V85.0782H29.8612V10.0417H47.1685Z" fill="#00AEEF"/>
</g>
</g>
<mask id="mask5_42_168" style="mask-type:luminance" maskUnits="userSpaceOnUse" x="55" y="40" width="19" height="46">
<path d="M55.955 40.2656H73.2622V85.2188H55.955V40.2656Z" fill="white"/>
</mask>
<g mask="url(#mask5_42_168)">
<mask id="mask6_42_168" style="mask-type:luminance" maskUnits="userSpaceOnUse" x="55" y="40" width="19" height="46">
<path d="M73.2622 57.5885V85.2135L55.955 67.8958V40.2656L73.2622 57.5885Z" fill="white"/>
</mask>
<g mask="url(#mask6_42_168)">
<path d="M73.2622 40.2656V85.2188H55.955V40.2656H73.2622Z" fill="#00AEEF"/>
</g>
</g>
</svg>
