<svg width="284" height="80" viewBox="0 0 284 80" fill="none" xmlns="http://www.w3.org/2000/svg">
<g clip-path="url(#clip0_24_34)">
<path d="M118.623 29.2285L116.146 30.8662C114.634 28.6266 112.66 26.863 110.225 25.5752C107.817 24.2594 105.2 23.6016 102.372 23.6016C97.7809 23.6016 93.8617 25.2253 90.6143 28.4727C87.3669 31.7201 85.7432 35.6393 85.7432 40.2305C85.7432 44.8216 87.3669 48.7409 90.6143 51.9883C93.8617 55.2357 97.7809 56.8594 102.372 56.8594C105.2 56.8594 107.817 56.2015 110.225 54.8857C112.66 53.57 114.634 51.7923 116.146 49.5527L118.581 51.3164C116.789 53.9479 114.466 56.0335 111.61 57.5732C108.755 59.113 105.675 59.8828 102.372 59.8828C99.7126 59.8828 97.165 59.3649 94.7295 58.3291C92.3219 57.2933 90.2363 55.8936 88.4727 54.1299C86.709 52.3662 85.3092 50.2806 84.2734 47.873C83.2376 45.4375 82.7197 42.89 82.7197 40.2305C82.7197 37.571 83.2376 35.0374 84.2734 32.6299C85.3092 30.1943 86.709 28.0947 88.4727 26.3311C90.2363 24.5674 92.3219 23.1676 94.7295 22.1318C97.165 21.096 99.7126 20.5781 102.372 20.5781C105.703 20.5781 108.797 21.362 111.652 22.9297C114.508 24.4694 116.831 26.569 118.623 29.2285ZM123.62 25.7852L121.101 27.4229C119.029 24.3994 116.341 22.0059 113.038 20.2422C109.763 18.4505 106.207 17.5547 102.372 17.5547C98.2568 17.5547 94.4635 18.5765 90.9922 20.6201C87.5208 22.6357 84.7633 25.3792 82.7197 28.8506C80.7041 32.3219 79.6963 36.1152 79.6963 40.2305C79.6963 44.3457 80.7041 48.139 82.7197 51.6104C84.7633 55.0817 87.5208 57.8392 90.9922 59.8828C94.4635 61.8984 98.2568 62.9062 102.372 62.9062C106.207 62.9062 109.777 62.0104 113.08 60.2188C116.383 58.4271 119.071 56.0055 121.143 52.9541L123.62 54.6758C121.269 58.1471 118.217 60.8906 114.466 62.9062C110.743 64.9219 106.711 65.9297 102.372 65.9297C97.7249 65.9297 93.4277 64.7819 89.4805 62.4863C85.5332 60.1908 82.4118 57.0693 80.1162 53.1221C77.8206 49.1748 76.6729 44.8776 76.6729 40.2305C76.6729 35.5833 77.8206 31.2861 80.1162 27.3389C82.4118 23.3916 85.5332 20.2702 89.4805 17.9746C93.4277 15.679 97.7249 14.5312 102.372 14.5312C106.711 14.5312 110.743 15.5391 114.466 17.5547C118.217 19.5703 121.269 22.3138 123.62 25.7852ZM128.659 22.4258L126.14 24.0635C123.508 20.2002 120.093 17.1488 115.894 14.9092C111.722 12.6416 107.215 11.5078 102.372 11.5078C98.4808 11.5078 94.7575 12.2637 91.2021 13.7754C87.6468 15.2871 84.5814 17.3307 82.0059 19.9062C79.4583 22.4538 77.4287 25.5052 75.917 29.0605C74.4053 32.6159 73.6494 36.3392 73.6494 40.2305C73.6494 44.1217 74.4053 47.8451 75.917 51.4004C77.4287 54.9557 79.4583 58.0212 82.0059 60.5967C84.5814 63.1442 87.6468 65.1738 91.2021 66.6855C94.7575 68.1973 98.4808 68.9531 102.372 68.9531C107.243 68.9531 111.764 67.8193 115.936 65.5518C120.107 63.2842 123.508 60.2188 126.14 56.3555L128.575 58.1611C125.664 62.4163 121.898 65.7897 117.279 68.2812C112.688 70.7448 107.719 71.9766 102.372 71.9766C96.6331 71.9766 91.3281 70.5628 86.457 67.7354C81.5859 64.8799 77.7227 61.0166 74.8672 56.1455C72.0397 51.2744 70.626 45.9694 70.626 40.2305C70.626 34.4915 72.0397 29.1865 74.8672 24.3154C77.7227 19.4443 81.5859 15.5951 86.457 12.7676C91.3281 9.91211 96.6331 8.48438 102.372 8.48438C107.747 8.48438 112.744 9.74414 117.363 12.2637C121.982 14.7552 125.748 18.1426 128.659 22.4258ZM133.614 18.9824L131.095 20.6201C127.903 15.945 123.774 12.2497 118.707 9.53418C113.668 6.81868 108.223 5.46094 102.372 5.46094C97.6689 5.46094 93.1618 6.38477 88.8506 8.23242C84.5674 10.0521 80.8721 12.5156 77.7646 15.623C74.6572 18.7305 72.1797 22.4398 70.332 26.751C68.5124 31.0342 67.6025 35.5273 67.6025 40.2305C67.6025 44.9336 68.5124 49.4408 70.332 53.752C72.1797 58.0352 74.6572 61.7305 77.7646 64.8379C80.8721 67.9453 84.5674 70.4229 88.8506 72.2705C93.1618 74.0902 97.6689 75 102.372 75C108.223 75 113.682 73.6283 118.749 70.8848C123.816 68.1413 127.945 64.432 131.137 59.7568L133.572 61.6045C130.101 66.6436 125.622 70.6468 120.135 73.6143C114.648 76.5537 108.727 78.0234 102.372 78.0234C97.249 78.0234 92.3499 77.0156 87.6748 75C83.0277 73.0124 79.0104 70.3389 75.623 66.9795C72.2637 63.5921 69.5762 59.5749 67.5605 54.9277C65.5729 50.2526 64.5791 45.3535 64.5791 40.2305C64.5791 35.1074 65.5729 30.2223 67.5605 25.5752C69.5762 20.9001 72.2637 16.8828 75.623 13.5234C79.0104 10.1361 83.0277 7.44857 87.6748 5.46094C92.3499 3.44531 97.249 2.4375 102.372 2.4375C108.755 2.4375 114.69 3.92122 120.177 6.88867C125.664 9.85612 130.143 13.8874 133.614 18.9824ZM162.295 40.3984H180.52C183.291 40.3984 185.629 39.5026 187.532 37.7109C189.464 35.9193 190.43 33.3717 190.43 30.0684C190.43 27.6328 189.422 25.4492 187.406 23.5176C185.391 21.5579 183.095 20.5781 180.52 20.5781H154.568V75H151.545V17.5547H180.52C183.935 17.5547 186.944 18.8285 189.548 21.376C192.151 23.8955 193.453 26.793 193.453 30.0684C193.453 34.0996 192.193 37.333 189.674 39.7686C187.154 42.2041 184.103 43.4219 180.52 43.4219H162.295V40.3984ZM162.295 46.4453H180.52C184.887 46.4453 188.638 44.9196 191.773 41.8682C194.909 38.7887 196.477 34.8555 196.477 30.0684C196.477 25.9531 194.867 22.3418 191.647 19.2344C188.456 16.099 184.747 14.5312 180.52 14.5312H148.521V75H145.498V11.5078H180.52C183.851 11.5078 186.972 12.3617 189.884 14.0693C192.823 15.777 195.161 18.0726 196.896 20.9561C198.632 23.8115 199.5 26.849 199.5 30.0684C199.5 35.5833 197.624 40.2025 193.873 43.9258C190.15 47.6211 185.699 49.4688 180.52 49.4688H162.295V46.4453ZM162.295 52.4922H180.52C184.439 52.4922 188.078 51.5264 191.438 49.5947C194.797 47.6631 197.484 44.9756 199.5 41.5322C201.516 38.0609 202.523 34.2396 202.523 30.0684C202.523 26.2891 201.516 22.7477 199.5 19.4443C197.512 16.113 194.825 13.4535 191.438 11.4658C188.05 9.47819 184.411 8.48438 180.52 8.48438H142.475V75H139.451V5.46094H180.52C184.915 5.46094 189.044 6.59473 192.907 8.8623C196.771 11.1019 199.836 14.1253 202.104 17.9326C204.399 21.7119 205.547 25.7572 205.547 30.0684C205.547 35.0514 204.469 39.4326 202.313 43.2119C200.186 46.9912 197.288 49.9447 193.621 52.0723L201.432 75H198.24L190.766 53.5C189.646 53.9479 188.792 54.2559 188.204 54.4238L195.217 75H192.025L185.181 55.1377C184.929 55.1937 184.033 55.2917 182.493 55.4316L189.002 75H185.811L179.386 55.5156H176.656L182.787 75H179.596L173.423 55.5156H162.295V52.4922ZM160.615 75H157.592V23.6016H180.52C182.395 23.6016 184.005 24.2454 185.349 25.5332C186.72 26.793 187.406 28.3047 187.406 30.0684C187.406 34.9395 185.111 37.375 180.52 37.375H162.295V34.3516H180.52C181.723 34.3516 182.661 34.0436 183.333 33.4277C184.033 32.7839 184.383 31.6641 184.383 30.0684C184.383 29.0885 184.005 28.2767 183.249 27.6328C182.521 26.9609 181.611 26.625 180.52 26.625H160.615V75ZM262.068 49.6367L265.092 43.9258V75H262.068V49.6367ZM268.115 38.0469L271.139 32.3359V75H268.115V38.0469ZM274.162 26.625L277.186 20.8721V75H274.162V26.625ZM253.88 48.209L252.158 45.0596L272.986 5.46094H276.388L253.88 48.209ZM250.395 41.6162L248.631 38.4248L266.1 5.46094H269.543L250.395 41.6162ZM230.154 44.2617L233.178 49.9727V75H230.154V44.2617ZM224.107 32.7559L227.131 38.4668V75H224.107V32.7559ZM218.061 21.25L221.084 27.0029V75H218.061V21.25ZM242.5 56.8594H239.099L215.037 11.2139V75H212.014V5.46094H215.415L242.5 56.8594ZM249.345 56.8594H245.901L218.858 5.46094H222.302L249.345 56.8594ZM280.209 11.2139L256.147 56.8594H252.704L225.703 5.46094H229.104L254.468 53.668L279.789 5.46094H283.232V75H280.209V11.2139Z" fill="#111111"/>
<path d="M24.2246 59.6084L24.1367 59.7275H24.2266L24.2275 59.7676H32.7275V59.7275H57V75H0V64.5L23.8818 32.624L24.2246 59.6084ZM57.1367 15.6816L32.7275 48.2607V20.8174L33 20.4541H0.136719V5.18164H57.1367V15.6816Z" fill="black"/>
</g>
<defs>
<clipPath id="clip0_24_34">
<rect width="284" height="80" fill="white"/>
</clipPath>
</defs>
</svg>
