<svg width="48" height="48" viewBox="0 0 48 48" fill="none" xmlns="http://www.w3.org/2000/svg">
<g clip-path="url(#clip0_10_8)">
<path d="M45 1.49995C45 1.24416 44.9346 0.992616 44.81 0.769232C44.6853 0.545848 44.5057 0.358043 44.288 0.223664C44.0704 0.0892855 43.822 0.0127983 43.5664 0.00147154C43.3109 -0.00985519 43.0567 0.0443549 42.828 0.15895L18.828 12.1589C18.5792 12.2836 18.3699 12.4751 18.2237 12.7119C18.0775 12.9488 18 13.2216 18 13.4999V22.9199L1.026 28.5779C0.727434 28.6774 0.467705 28.8682 0.283575 29.1234C0.0994443 29.3786 0.00023894 29.6853 0 29.9999L0 46.4999C0 46.8978 0.158035 47.2793 0.43934 47.5606C0.720644 47.8419 1.10218 47.9999 1.5 47.9999H28.5C28.8978 47.9999 29.2794 47.8419 29.5607 47.5606C29.842 47.2793 30 46.8978 30 46.4999V41.9999H33V46.4999C33 46.8978 33.158 47.2793 33.4393 47.5606C33.7206 47.8419 34.1022 47.9999 34.5 47.9999H43.5C43.8978 47.9999 44.2794 47.8419 44.5607 47.5606C44.842 47.2793 45 46.8978 45 46.4999V1.49995ZM6 32.9999H9V35.9999H6V32.9999ZM12 32.9999H15V35.9999H12V32.9999ZM9 38.9999V41.9999H6V38.9999H9ZM12 38.9999H15V41.9999H12V38.9999ZM39 8.99995V11.9999H36V8.99995H39ZM24 14.9999H27V17.9999H24V14.9999ZM27 20.9999V23.9999H24V20.9999H27ZM24 26.9999H27V29.9999H24V26.9999ZM30 26.9999H33V29.9999H30V26.9999ZM27 32.9999V35.9999H24V32.9999H27ZM30 32.9999H33V35.9999H30V32.9999ZM39 26.9999V29.9999H36V26.9999H39ZM36 32.9999H39V35.9999H36V32.9999ZM30 20.9999H33V23.9999H30V20.9999ZM39 20.9999V23.9999H36V20.9999H39ZM33 14.9999V17.9999H30V14.9999H33ZM36 14.9999H39V17.9999H36V14.9999Z" fill="#2B7FFF"/>
</g>
<defs>
<clipPath id="clip0_10_8">
<rect width="48" height="48" fill="white"/>
</clipPath>
</defs>
</svg>
