<svg width="250" height="48" viewBox="0 0 250 48" fill="none" xmlns="http://www.w3.org/2000/svg">
<g clip-path="url(#clip0_15_2)">
<path d="M65.176 40.336H80.248V46H57.4V40.816L72.376 18.16H57.4V12.496H80.248V17.68L65.176 40.336ZM89.3763 16.24C88.1923 16.24 87.2003 15.872 86.4003 15.136C85.6323 14.368 85.2483 13.424 85.2483 12.304C85.2483 11.184 85.6323 10.256 86.4003 9.52C87.2003 8.752 88.1923 8.368 89.3763 8.368C90.5603 8.368 91.5363 8.752 92.3043 9.52C93.1043 10.256 93.5043 11.184 93.5043 12.304C93.5043 13.424 93.1043 14.368 92.3043 15.136C91.5363 15.872 90.5603 16.24 89.3763 16.24ZM92.6883 19.408V46H85.9683V19.408H92.6883ZM115.072 46L106.048 34.672V46H99.3276V10.48H106.048V30.688L114.976 19.408H123.712L112 32.752L123.808 46H115.072ZM125.631 32.608C125.631 29.92 126.159 27.536 127.215 25.456C128.303 23.376 129.759 21.776 131.583 20.656C133.439 19.536 135.503 18.976 137.775 18.976C139.759 18.976 141.487 19.376 142.959 20.176C144.463 20.976 145.663 21.984 146.559 23.2V19.408H153.327V46H146.559V42.112C145.695 43.36 144.495 44.4 142.959 45.232C141.455 46.032 139.711 46.432 137.727 46.432C135.487 46.432 133.439 45.856 131.583 44.704C129.759 43.552 128.303 41.936 127.215 39.856C126.159 37.744 125.631 35.328 125.631 32.608ZM146.559 32.704C146.559 31.072 146.239 29.68 145.599 28.528C144.959 27.344 144.095 26.448 143.007 25.84C141.919 25.2 140.751 24.88 139.503 24.88C138.255 24.88 137.103 25.184 136.047 25.792C134.991 26.4 134.127 27.296 133.455 28.48C132.815 29.632 132.495 31.008 132.495 32.608C132.495 34.208 132.815 35.616 133.455 36.832C134.127 38.016 134.991 38.928 136.047 39.568C137.135 40.208 138.287 40.528 139.503 40.528C140.751 40.528 141.919 40.224 143.007 39.616C144.095 38.976 144.959 38.08 145.599 36.928C146.239 35.744 146.559 34.336 146.559 32.704ZM170.066 46.432C167.89 46.432 165.938 46.048 164.21 45.28C162.482 44.48 161.106 43.408 160.082 42.064C159.09 40.72 158.546 39.232 158.45 37.6H165.218C165.346 38.624 165.842 39.472 166.706 40.144C167.602 40.816 168.706 41.152 170.018 41.152C171.298 41.152 172.29 40.896 172.994 40.384C173.73 39.872 174.098 39.216 174.098 38.416C174.098 37.552 173.65 36.912 172.754 36.496C171.89 36.048 170.498 35.568 168.578 35.056C166.594 34.576 164.962 34.08 163.682 33.568C162.434 33.056 161.346 32.272 160.418 31.216C159.522 30.16 159.074 28.736 159.074 26.944C159.074 25.472 159.49 24.128 160.322 22.912C161.186 21.696 162.402 20.736 163.97 20.032C165.57 19.328 167.442 18.976 169.586 18.976C172.754 18.976 175.282 19.776 177.17 21.376C179.058 22.944 180.098 25.072 180.29 27.76H173.858C173.762 26.704 173.314 25.872 172.514 25.264C171.746 24.624 170.706 24.304 169.394 24.304C168.178 24.304 167.234 24.528 166.562 24.976C165.922 25.424 165.602 26.048 165.602 26.848C165.602 27.744 166.05 28.432 166.946 28.912C167.842 29.36 169.234 29.824 171.122 30.304C173.042 30.784 174.626 31.28 175.874 31.792C177.122 32.304 178.194 33.104 179.09 34.192C180.018 35.248 180.498 36.656 180.53 38.416C180.53 39.952 180.098 41.328 179.234 42.544C178.402 43.76 177.186 44.72 175.586 45.424C174.018 46.096 172.178 46.432 170.066 46.432ZM201.022 19.024C203.038 19.024 204.83 19.472 206.398 20.368C207.966 21.232 209.182 22.528 210.046 24.256C210.942 25.952 211.39 28 211.39 30.4V46H204.67V31.312C204.67 29.2 204.142 27.584 203.086 26.464C202.03 25.312 200.59 24.736 198.766 24.736C196.91 24.736 195.438 25.312 194.35 26.464C193.294 27.584 192.766 29.2 192.766 31.312V46H186.046V10.48H192.766V22.72C193.63 21.568 194.782 20.672 196.222 20.032C197.662 19.36 199.262 19.024 201.022 19.024ZM216.053 32.608C216.053 29.92 216.581 27.536 217.637 25.456C218.725 23.376 220.181 21.776 222.005 20.656C223.861 19.536 225.925 18.976 228.197 18.976C230.181 18.976 231.909 19.376 233.381 20.176C234.885 20.976 236.085 21.984 236.981 23.2V19.408H243.749V46H236.981V42.112C236.117 43.36 234.917 44.4 233.381 45.232C231.877 46.032 230.133 46.432 228.149 46.432C225.909 46.432 223.861 45.856 222.005 44.704C220.181 43.552 218.725 41.936 217.637 39.856C216.581 37.744 216.053 35.328 216.053 32.608ZM236.981 32.704C236.981 31.072 236.661 29.68 236.021 28.528C235.381 27.344 234.517 26.448 233.429 25.84C232.341 25.2 231.173 24.88 229.925 24.88C228.677 24.88 227.525 25.184 226.469 25.792C225.413 26.4 224.549 27.296 223.877 28.48C223.237 29.632 222.917 31.008 222.917 32.608C222.917 34.208 223.237 35.616 223.877 36.832C224.549 38.016 225.413 38.928 226.469 39.568C227.557 40.208 228.709 40.528 229.925 40.528C231.173 40.528 232.341 40.224 233.429 39.616C234.517 38.976 235.381 38.08 236.021 36.928C236.661 35.744 236.981 34.336 236.981 32.704Z" fill="#111111"/>
<path d="M45 1.49995C45 1.24416 44.9346 0.992616 44.81 0.769232C44.6853 0.545848 44.5057 0.358043 44.288 0.223664C44.0704 0.0892855 43.822 0.0127983 43.5664 0.00147154C43.3109 -0.00985519 43.0567 0.0443549 42.828 0.15895L18.828 12.1589C18.5792 12.2836 18.3699 12.4751 18.2237 12.7119C18.0775 12.9488 18 13.2216 18 13.4999V22.9199L1.026 28.5779C0.727434 28.6774 0.467705 28.8682 0.283575 29.1234C0.0994443 29.3786 0.00023894 29.6853 0 29.9999L0 46.4999C0 46.8978 0.158035 47.2793 0.43934 47.5606C0.720644 47.8419 1.10218 47.9999 1.5 47.9999H28.5C28.8978 47.9999 29.2794 47.8419 29.5607 47.5606C29.842 47.2793 30 46.8978 30 46.4999V41.9999H33V46.4999C33 46.8978 33.158 47.2793 33.4393 47.5606C33.7206 47.8419 34.1022 47.9999 34.5 47.9999H43.5C43.8978 47.9999 44.2794 47.8419 44.5607 47.5606C44.842 47.2793 45 46.8978 45 46.4999V1.49995ZM6 32.9999H9V35.9999H6V32.9999ZM12 32.9999H15V35.9999H12V32.9999ZM9 38.9999V41.9999H6V38.9999H9ZM12 38.9999H15V41.9999H12V38.9999ZM39 8.99995V11.9999H36V8.99995H39ZM24 14.9999H27V17.9999H24V14.9999ZM27 20.9999V23.9999H24V20.9999H27ZM24 26.9999H27V29.9999H24V26.9999ZM30 26.9999H33V29.9999H30V26.9999ZM27 32.9999V35.9999H24V32.9999H27ZM30 32.9999H33V35.9999H30V32.9999ZM39 26.9999V29.9999H36V26.9999H39ZM36 32.9999H39V35.9999H36V32.9999ZM30 20.9999H33V23.9999H30V20.9999ZM39 20.9999V23.9999H36V20.9999H39ZM33 14.9999V17.9999H30V14.9999H33ZM36 14.9999H39V17.9999H36V14.9999Z" fill="#2B7FFF"/>
</g>
<defs>
<clipPath id="clip0_15_2">
<rect width="250" height="48" fill="white"/>
</clipPath>
</defs>
</svg>
