<svg width="250" height="48" viewBox="0 0 250 48" fill="none" xmlns="http://www.w3.org/2000/svg">
<g clip-path="url(#clip0_8_2)">
<path d="M85.4 46H58.52V40.56L79.96 19.12H58.52V14.64H85.4V20.144L63.96 41.52H85.4V46ZM97.8975 19.76H93.4175V14.64H97.8975V19.76ZM97.8975 46H93.4175V26.8L97.8975 22.32V46ZM131.175 23.6L120.999 32.496V33.136H125.415C126.652 33.136 127.698 33.584 128.551 34.48C129.447 35.3333 129.895 36.3787 129.895 37.616V46H125.415V36.4H111.975V46H107.495V13.36L111.975 8.88V35.824L125.735 23.6H131.175ZM159.67 46H155.19V42.736L151.35 46H141.75C140.513 46 139.446 45.5733 138.55 44.72C137.697 43.824 137.27 42.7573 137.27 41.52V37.04C137.27 35.8027 137.697 34.7573 138.55 33.904C139.446 33.008 140.513 32.56 141.75 32.56H154.55L150.71 36.336H141.75V42.16H155.19V27.44H137.27L141.11 23.6H155.19C156.427 23.6 157.473 24.048 158.326 24.944C159.222 25.7973 159.67 26.8427 159.67 28.08V46ZM186.845 23.6L182.941 27.44H172.125V32.56H181.085C182.322 32.56 183.368 33.008 184.221 33.904C185.117 34.7573 185.565 35.8027 185.565 37.04V41.52C185.565 42.7573 185.117 43.824 184.221 44.72C183.368 45.5733 182.322 46 181.085 46H167.645V42.16H181.085V36.4H172.125C170.888 36.4 169.821 35.9733 168.925 35.12C168.072 34.224 167.645 33.1573 167.645 31.92V28.08C167.645 26.8427 168.072 25.7973 168.925 24.944C169.821 24.048 170.888 23.6 172.125 23.6H186.845ZM216.583 46H212.103V27.44H198.663V46H194.183V13.36L198.663 8.88V26.8L201.863 23.6H212.103C213.34 23.6 214.385 24.048 215.239 24.944C216.135 25.7973 216.583 26.8427 216.583 28.08V46ZM246.983 46H242.503V42.736L238.663 46H229.062C227.825 46 226.759 45.5733 225.863 44.72C225.009 43.824 224.583 42.7573 224.583 41.52V37.04C224.583 35.8027 225.009 34.7573 225.863 33.904C226.759 33.008 227.825 32.56 229.062 32.56H241.863L238.023 36.336H229.062V42.16H242.503V27.44H224.583L228.423 23.6H242.503C243.74 23.6 244.785 24.048 245.639 24.944C246.535 25.7973 246.983 26.8427 246.983 28.08V46Z" fill="#111111"/>
<path d="M45 1.49995C45 1.24416 44.9346 0.992616 44.81 0.769232C44.6853 0.545848 44.5057 0.358043 44.288 0.223664C44.0704 0.0892855 43.822 0.0127983 43.5664 0.00147154C43.3109 -0.00985519 43.0567 0.0443549 42.828 0.15895L18.828 12.1589C18.5792 12.2836 18.3699 12.4751 18.2237 12.7119C18.0775 12.9488 18 13.2216 18 13.4999V22.9199L1.026 28.5779C0.727434 28.6774 0.467705 28.8682 0.283575 29.1234C0.0994443 29.3786 0.00023894 29.6853 0 29.9999L0 46.4999C0 46.8978 0.158035 47.2793 0.43934 47.5606C0.720644 47.8419 1.10218 47.9999 1.5 47.9999H28.5C28.8978 47.9999 29.2794 47.8419 29.5607 47.5606C29.842 47.2793 30 46.8978 30 46.4999V41.9999H33V46.4999C33 46.8978 33.158 47.2793 33.4393 47.5606C33.7206 47.8419 34.1022 47.9999 34.5 47.9999H43.5C43.8978 47.9999 44.2794 47.8419 44.5607 47.5606C44.842 47.2793 45 46.8978 45 46.4999V1.49995ZM6 32.9999H9V35.9999H6V32.9999ZM12 32.9999H15V35.9999H12V32.9999ZM9 38.9999V41.9999H6V38.9999H9ZM12 38.9999H15V41.9999H12V38.9999ZM39 8.99995V11.9999H36V8.99995H39ZM24 14.9999H27V17.9999H24V14.9999ZM27 20.9999V23.9999H24V20.9999H27ZM24 26.9999H27V29.9999H24V26.9999ZM30 26.9999H33V29.9999H30V26.9999ZM27 32.9999V35.9999H24V32.9999H27ZM30 32.9999H33V35.9999H30V32.9999ZM39 26.9999V29.9999H36V26.9999H39ZM36 32.9999H39V35.9999H36V32.9999ZM30 20.9999H33V23.9999H30V20.9999ZM39 20.9999V23.9999H36V20.9999H39ZM33 14.9999V17.9999H30V14.9999H33ZM36 14.9999H39V17.9999H36V14.9999Z" fill="#2B7FFF"/>
</g>
<defs>
<clipPath id="clip0_8_2">
<rect width="250" height="48" fill="white"/>
</clipPath>
</defs>
</svg>
